<?xml version="1.0"?>
<svg xmlns="http://www.w3.org/2000/svg" width="512" height="512" viewBox="196.21 245.095 88.08 88.08" preserveAspectRatio="xMidYMid meet" shape-rendering="geometricPrecision" role="img" aria-labelledby="title">
  <title id="title">Inttex</title>
<path d="M212.59 268.13L212.59 255.64 200.21 255.64 212.59 268.13Z" fill="#FFFFFF" stroke="#FFFFFF" stroke-width="0.2"></path>
<path d="M212.7 322.63L212.7 310.29 200.21 322.63 212.7 322.63Z" fill="#FFFFFF" stroke="#FFFFFF" stroke-width="0.2"></path>
<path d="M212.7 322.63L233.77 301.76 212.7 310.29 212.7 322.63Z" fill="#FFFFFF" stroke="#FFFFFF" stroke-width="0.2"></path>
<path d="M233.77 301.76L233.77 289.49 212.7 310.29 233.77 301.76Z" fill="#FFFFFF" stroke="#FFFFFF" stroke-width="0.2"></path>
<path d="M212.59 268.13L233.77 289.49 212.59 255.64 212.59 268.13Z" fill="#FFFFFF" stroke="#FFFFFF" stroke-width="0.2"></path>
<path d="M233.77 289.49L233.77 277 212.59 255.64 233.77 289.49Z" fill="#FFFFFF" stroke="#FFFFFF" stroke-width="0.2"></path>
<path d="M233.77 301.76L246.15 289.49 233.77 277 233.77 301.76Z" fill="#FFFFFF" stroke="#FFFFFF" stroke-width="0.2"></path>
<path d="M200.21 255.64L212.59 255.64" fill="none" stroke="#FFFFFF" stroke-width="0.5"></path>
<path d="M212.59 255.64L246.15 289.49" fill="none" stroke="#FFFFFF" stroke-width="0.5"></path>
<path d="M246.15 289.49L212.7 322.63" fill="none" stroke="#FFFFFF" stroke-width="0.5"></path>
<path d="M212.7 322.63L200.21 322.63" fill="none" stroke="#FFFFFF" stroke-width="0.5"></path>
<path d="M200.21 322.63L233.77 289.49" fill="none" stroke="#FFFFFF" stroke-width="0.5"></path>
<path d="M233.77 289.49L200.21 255.64" fill="none" stroke="#FFFFFF" stroke-width="0.5"></path>
<path d="M253.57 309.45L253.57 296.98 247.34 303.16 253.57 309.45Z" fill="#FFFFFF" stroke="#FFFFFF" stroke-width="0.2"></path>
<path d="M253.62 282.09L253.62 269.87 247.5 275.92 253.62 282.09Z" fill="#FFFFFF" stroke="#FFFFFF" stroke-width="0.2"></path>
<path d="M253.57 309.45L266.63 322.63 253.57 296.98 253.57 309.45Z" fill="#FFFFFF" stroke="#FFFFFF" stroke-width="0.2"></path>
<path d="M266.63 322.63L266.63 310.16 253.57 296.98 266.63 322.63Z" fill="#FFFFFF" stroke="#FFFFFF" stroke-width="0.2"></path>
<path d="M253.62 282.09L267.97 267.85 253.62 269.87 253.62 282.09Z" fill="#FFFFFF" stroke="#FFFFFF" stroke-width="0.2"></path>
<path d="M267.97 267.85L267.97 255.64 253.62 269.87 267.97 267.85Z" fill="#FFFFFF" stroke="#FFFFFF" stroke-width="0.2"></path>
<path d="M266.63 322.63L278.99 322.63 266.63 310.16 266.63 322.63Z" fill="#FFFFFF" stroke="#FFFFFF" stroke-width="0.2"></path>
<path d="M267.97 267.85L280.29 255.64 267.97 255.64 267.97 267.85Z" fill="#FFFFFF" stroke="#FFFFFF" stroke-width="0.2"></path>
<path d="M267.33 256.35L279.57 256.35" fill="none" stroke="#FFFFFF" stroke-width="0.5"></path>
<path d="M223.19 261.89L223.19 255.64 217 255.64 223.19 261.89Z" fill="#4FC8D8" stroke="#4FC8D8" stroke-width="0.2"></path>
<path d="M223.25 322.63L223.25 316.46 217 322.63 223.25 322.63Z" fill="#4FC8D8" stroke="#4FC8D8" stroke-width="0.2"></path>
<path d="M226.24 292.59L226.24 286.45 223.17 289.49 226.24 292.59Z" fill="#4FC8D8" stroke="#4FC8D8" stroke-width="0.2"></path>
<path d="M226.24 292.59L226.3 292.53 226.24 286.45 226.24 292.59Z" fill="#4FC8D8" stroke="#4FC8D8" stroke-width="0.2"></path>
<path d="M226.3 292.53L226.3 286.39 226.24 286.45 226.3 292.53Z" fill="#4FC8D8" stroke="#4FC8D8" stroke-width="0.2"></path>
<path d="M226.3 292.53L229.36 289.49 226.3 286.39 226.3 292.53Z" fill="#4FC8D8" stroke="#4FC8D8" stroke-width="0.2"></path>
<path d="M223.25 322.63L234.52 311.41 223.25 316.46 223.25 322.63Z" fill="#4FC8D8" stroke="#4FC8D8" stroke-width="0.2"></path>
<path d="M234.52 311.41L234.52 305.32 223.25 316.46 234.52 311.41Z" fill="#4FC8D8" stroke="#4FC8D8" stroke-width="0.2"></path>
<path d="M223.19 261.89L234.85 273.65 223.19 255.64 223.19 261.89Z" fill="#4FC8D8" stroke="#4FC8D8" stroke-width="0.2"></path>
<path d="M234.85 273.65L234.85 267.4 223.19 255.64 234.85 273.65Z" fill="#4FC8D8" stroke="#4FC8D8" stroke-width="0.2"></path>
<path d="M234.52 311.41L237.57 308.38 234.52 305.32 234.52 311.41Z" fill="#4FC8D8" stroke="#4FC8D8" stroke-width="0.2"></path>
<path d="M234.85 273.65L237.98 270.55 234.85 267.4 234.85 273.65Z" fill="#4FC8D8" stroke="#4FC8D8" stroke-width="0.2"></path>
<path d="M239.9 306.34L239.9 300.02 236.73 303.14 239.9 306.34Z" fill="#4FC8D8" stroke="#4FC8D8" stroke-width="0.2"></path>
<path d="M240.12 278.96L240.12 272.73 237 275.82 240.12 278.96Z" fill="#4FC8D8" stroke="#4FC8D8" stroke-width="0.2"></path>
<path d="M245.16 300.96L245.16 294.82 242.09 297.85 245.16 300.96Z" fill="#4FC8D8" stroke="#4FC8D8" stroke-width="0.2"></path>
<path d="M245.39 284.28L245.39 278.03 242.27 281.13 245.39 284.28Z" fill="#4FC8D8" stroke="#4FC8D8" stroke-width="0.2"></path>
<path d="M245.16 300.96L250.56 295.61 245.16 294.82 245.16 300.96Z" fill="#4FC8D8" stroke="#4FC8D8" stroke-width="0.2"></path>
<path d="M250.56 295.61L250.56 289.49 245.16 294.82 250.56 295.61Z" fill="#4FC8D8" stroke="#4FC8D8" stroke-width="0.2"></path>
<path d="M245.39 284.28L250.56 289.49 245.39 278.03 245.39 284.28Z" fill="#4FC8D8" stroke="#4FC8D8" stroke-width="0.2"></path>
<path d="M250.56 289.49L250.56 283.25 245.39 278.03 250.56 289.49Z" fill="#4FC8D8" stroke="#4FC8D8" stroke-width="0.2"></path>
<path d="M239.9 306.34L255.97 322.63 239.9 300.02 239.9 306.34Z" fill="#4FC8D8" stroke="#4FC8D8" stroke-width="0.2"></path>
<path d="M255.97 322.63L255.97 316.3 239.9 300.02 255.97 322.63Z" fill="#4FC8D8" stroke="#4FC8D8" stroke-width="0.2"></path>
<path d="M250.56 295.61L256.74 289.49 250.56 283.25 250.56 295.61Z" fill="#4FC8D8" stroke="#4FC8D8" stroke-width="0.2"></path>
<path d="M240.12 278.96L257.35 261.87 240.12 272.73 240.12 278.96Z" fill="#4FC8D8" stroke="#4FC8D8" stroke-width="0.2"></path>
<path d="M257.35 261.87L257.35 255.64 240.12 272.73 257.35 261.87Z" fill="#4FC8D8" stroke="#4FC8D8" stroke-width="0.2"></path>
<path d="M255.97 322.63L262.22 322.63 255.97 316.3 255.97 322.63Z" fill="#4FC8D8" stroke="#4FC8D8" stroke-width="0.2"></path>
<path d="M257.35 261.87L263.64 255.64 257.35 255.64 257.35 261.87Z" fill="#4FC8D8" stroke="#4FC8D8" stroke-width="0.2"></path>
<path d="M242.09 297.85L250.56 289.49" fill="none" stroke="#4FC8D8" stroke-width="0.5"></path>
<path d="M250.56 289.49L242.27 281.13" fill="none" stroke="#4FC8D8" stroke-width="0.5"></path>
<path d="M240.09 278.92L237 275.82" fill="none" stroke="#4FC8D8" stroke-width="0.5"></path>
<path d="M223.19 255.64L217 255.64" fill="none" stroke="#4FC8D8" stroke-width="0.5"></path>
<path d="M217 255.64L234.85 273.65" fill="none" stroke="#4FC8D8" stroke-width="0.5"></path>
<path d="M223.25 322.63L217 322.63" fill="none" stroke="#4FC8D8" stroke-width="0.5"></path>
<path d="M236.73 303.14L239.86 300.05" fill="none" stroke="#4FC8D8" stroke-width="0.5"></path>
<path d="M239.9 300.02L262.22 322.63" fill="none" stroke="#4FC8D8" stroke-width="0.5"></path>
<path d="M262.22 322.63L255.97 322.63" fill="none" stroke="#4FC8D8" stroke-width="0.5"></path>
<path d="M263.64 255.64L240.12 278.96" fill="none" stroke="#4FC8D8" stroke-width="0.5"></path>
<path d="M229.36 289.49L226.3 286.39" fill="none" stroke="#4FC8D8" stroke-width="0.5"></path>
<path d="M266.63 322.63L278.99 322.63" fill="none" stroke="#FFFFFF" stroke-width="0.5"></path>
<path d="M247.33 303.17L253.57 296.98" fill="none" stroke="#FFFFFF" stroke-width="0.5"></path>
<path d="M253.57 296.98L278.99 322.63" fill="none" stroke="#FFFFFF" stroke-width="0.5"></path>
<path d="M247.34 303.16L266.63 322.63" fill="none" stroke="#FFFFFF" stroke-width="0.5"></path>
<path d="M247.5 275.92L267.97 255.64" fill="none" stroke="#FFFFFF" stroke-width="0.5"></path>
<path d="M253.62 282.09L280.29 255.64" fill="none" stroke="#FFFFFF" stroke-width="0.5"></path>
<path d="M217 322.63L234.52 305.32" fill="none" stroke="#4FC8D8" stroke-width="0.5"></path>
<path d="M245.39 278.03L242.27 281.13" fill="none" stroke="#4FC8D8" stroke-width="0.5"></path>
<path d="M226.24 292.59L229.36 289.49" fill="none" stroke="#4FC8D8" stroke-width="0.5"></path>
<path d="M242.09 297.85L245.16 300.96" fill="none" stroke="#4FC8D8" stroke-width="0.5"></path>
<path d="M223.19 255.64L237.98 270.55" fill="none" stroke="#4FC8D8" stroke-width="0.5"></path>
<path d="M226.3 286.39L223.17 289.49" fill="none" stroke="#4FC8D8" stroke-width="0.5"></path>
<path d="M223.17 289.49L226.24 292.59" fill="none" stroke="#4FC8D8" stroke-width="0.5"></path>
<path d="M245.39 278.03L256.74 289.49" fill="none" stroke="#4FC8D8" stroke-width="0.5"></path>
<path d="M245.16 300.96L256.74 289.49" fill="none" stroke="#4FC8D8" stroke-width="0.5"></path>
<path d="M236.73 303.14L255.97 322.63" fill="none" stroke="#4FC8D8" stroke-width="0.5"></path>
<path d="M237.57 308.38L223.25 322.63" fill="none" stroke="#4FC8D8" stroke-width="0.5"></path>
<path d="M237 275.82L257.35 255.64" fill="none" stroke="#4FC8D8" stroke-width="0.5"></path>
<path d="M237.61 308.42L234.54 305.34" fill="none" stroke="#4FC8D8" stroke-width="0.5"></path>
<path d="M234.85 273.65L237.98 270.55" fill="none" stroke="#4FC8D8" stroke-width="0.5"></path>
<path d="M253.62 282.09L247.51 275.93" fill="none" stroke="#FFFFFF" stroke-width="0.5"></path>
</svg>